<?xml version="1.0" standalone="no"?>
<!DOCTYPE svg PUBLIC "-//W3C//DTD SVG 20010904//EN"
 "http://www.w3.org/TR/2001/REC-SVG-20010904/DTD/svg10.dtd">
<svg version="1.0" xmlns="http://www.w3.org/2000/svg"
 width="474.000000pt" height="474.000000pt" viewBox="0 0 474.000000 474.000000"
 preserveAspectRatio="xMidYMid meet">
<metadata>
Created by potrace 1.16, written by Peter Selinger 2001-2019
</metadata>
<g transform="translate(0.000000,474.000000) scale(0.100000,-0.100000)"
fill="#000000" stroke="none">
<path d="M1514 4339 c-67 -19 -127 -71 -161 -138 l-33 -63 2 -1777 3 -1776 23
-45 c32 -61 58 -87 117 -118 l50 -27 835 -3 c751 -2 840 -1 887 14 60 19 128
79 158 139 20 39 20 71 23 1810 2 1946 7 1813 -59 1896 -17 22 -54 52 -83 67
l-51 27 -840 2 c-488 1 -853 -2 -871 -8z m1041 -269 l0 -25 -183 -3 c-156 -2
-183 0 -188 13 -4 8 -4 22 0 30 5 13 32 15 188 13 l183 -3 0 -25z m683 -1700
l-3 -1410 -865 0 -865 0 -3 1410 -2 1410 870 0 870 0 -2 -1410z m-788 -1550
c53 -27 83 -72 88 -134 5 -66 -15 -115 -64 -152 -33 -25 -46 -29 -104 -29 -58
0 -71 4 -104 29 -45 34 -66 79 -66 138 1 125 137 206 250 148z"/>
</g>
</svg>
