<?xml version="1.0" standalone="no"?>
<!DOCTYPE svg PUBLIC "-//W3C//DTD SVG 20010904//EN"
 "http://www.w3.org/TR/2001/REC-SVG-20010904/DTD/svg10.dtd">
<svg version="1.0" xmlns="http://www.w3.org/2000/svg"
 width="256.000000pt" height="256.000000pt" viewBox="0 0 256.000000 256.000000"
 preserveAspectRatio="xMidYMid meet">
<metadata>
Created by potrace 1.16, written by Peter Selinger 2001-2019
</metadata>
<g transform="translate(0.000000,256.000000) scale(0.100000,-0.100000)"
fill="#000000" stroke="none">
<path d="M1135 2449 c-260 -35 -503 -156 -685 -339 -461 -463 -463 -1202 -5
-1665 168 -170 367 -278 610 -331 109 -24 349 -24 460 0 308 67 572 240 743
489 480 699 91 1661 -740 1831 -98 20 -291 28 -383 15z m107 -655 c21 -13 44
-24 53 -24 30 0 45 -54 45 -169 0 -61 5 -130 12 -154 14 -55 3 -112 -27 -139
-14 -12 -27 -37 -31 -57 -3 -20 -13 -51 -22 -68 -15 -30 -15 -34 0 -45 10 -7
28 -28 40 -47 24 -35 107 -76 291 -140 115 -41 117 -43 117 -151 l0 -90 -595
0 -595 0 0 88 c0 104 11 122 88 146 26 8 91 32 144 54 53 22 111 43 128 47 22
5 36 17 51 46 11 22 27 43 35 46 12 4 11 10 -6 38 -12 20 -20 50 -20 78 0 36
-4 46 -20 50 -11 3 -24 16 -29 29 -12 32 -12 305 0 351 32 120 230 185 341
111z m541 -186 c29 -11 58 -28 65 -36 8 -10 12 -50 12 -115 0 -54 5 -107 10
-118 13 -24 3 -85 -18 -106 -14 -13 -51 -104 -52 -125 0 -5 6 -8 13 -8 6 0 18
-13 25 -29 9 -20 26 -34 55 -45 99 -36 223 -90 240 -104 13 -12 17 -31 17 -87
l0 -72 -139 -1 c-126 -1 -141 0 -165 19 -21 17 -26 29 -26 67 0 80 -21 102
-154 159 -114 49 -116 50 -96 68 21 19 27 50 11 59 -4 3 -11 23 -14 45 -2 21
-14 48 -25 59 -18 18 -20 33 -21 144 0 160 15 197 92 227 68 26 107 26 170 -1z"/>
</g>
</svg>
