<?xml version="1.0" standalone="no"?>
<!DOCTYPE svg PUBLIC "-//W3C//DTD SVG 20010904//EN"
 "http://www.w3.org/TR/2001/REC-SVG-20010904/DTD/svg10.dtd">
<svg version="1.0" xmlns="http://www.w3.org/2000/svg"
 width="309.000000pt" height="339.000000pt" viewBox="0 0 309.000000 339.000000"
 preserveAspectRatio="xMidYMid meet">
<metadata>
Created by potrace 1.16, written by Peter Selinger 2001-2019
</metadata>
<g transform="translate(0.000000,339.000000) scale(0.100000,-0.100000)"
fill="#000000" stroke="none">
<path d="M1370 3358 c-261 -81 -328 -159 -314 -368 4 -54 17 -127 30 -170 13
-41 24 -97 24 -123 0 -26 6 -60 14 -75 7 -15 19 -52 25 -82 13 -62 48 -128
129 -245 74 -107 89 -123 126 -131 17 -3 43 -15 58 -25 14 -11 34 -19 45 -20
10 0 0 -7 -22 -15 -22 -8 -53 -27 -70 -43 -16 -16 -52 -40 -80 -54 l-50 -26
71 -1 c52 0 73 -4 77 -14 10 -25 -14 -100 -54 -173 -32 -57 -45 -97 -60 -179
-15 -83 -59 -432 -59 -466 0 -11 -112 -10 -129 1 -29 19 4 537 44 681 8 30 35
134 60 230 25 96 48 183 51 192 3 11 -18 2 -63 -29 -82 -55 -232 -128 -368
-178 -105 -39 -173 -73 -195 -100 -8 -10 -17 -82 -26 -213 -13 -183 -34 -359
-53 -442 -6 -27 -10 -31 -15 -18 -5 11 -25 20 -52 24 -36 5 -48 12 -60 35 -8
16 -27 43 -42 61 -15 18 -45 71 -66 118 -48 105 -88 170 -101 166 -5 -2 -8
-10 -6 -17 2 -8 5 -33 6 -55 4 -44 43 -132 69 -153 20 -16 21 -41 3 -41 -8 0
-22 -9 -32 -20 -10 -12 -24 -19 -29 -17 -6 3 -21 1 -33 -4 -18 -6 -23 -16 -23
-43 0 -25 -5 -35 -20 -39 -11 -3 -20 -12 -20 -21 0 -12 -15 -16 -77 -18 -61
-2 -78 -6 -81 -19 -2 -12 170 -179 254 -245 11 -9 11 -17 2 -42 -15 -39 -23
-26 209 -304 146 -174 181 -210 225 -232 28 -14 57 -26 64 -26 14 0 10 -77
-12 -245 -8 -60 -14 -115 -14 -122 0 -11 159 -13 831 -13 l832 0 -7 118 c-4
64 -10 126 -12 137 -5 19 2 22 71 32 45 6 98 22 132 39 47 24 63 39 94 92 44
73 56 123 68 277 8 98 5 138 -25 375 -21 159 -38 351 -44 480 -12 270 -25 373
-53 430 -21 43 -26 46 -112 78 -255 92 -446 189 -555 282 l-85 71 -7 -73 c-3
-40 -17 -111 -31 -158 -40 -136 -85 -319 -97 -399 -7 -40 -17 -170 -23 -289
l-12 -215 -55 -18 c-30 -10 -61 -19 -69 -19 -15 0 -13 64 11 355 11 135 10
142 -11 205 -24 70 -23 138 4 160 9 7 38 10 75 8 60 -3 78 5 40 17 -11 3 -41
29 -67 56 -27 28 -59 55 -73 60 l-25 11 30 12 c38 16 142 100 182 146 16 19
43 55 58 80 28 44 28 46 18 125 -10 73 -9 82 8 105 32 41 47 83 65 174 16 80
16 87 1 104 -14 15 -16 33 -11 113 12 182 -47 329 -132 329 -9 0 -28 13 -43
29 -32 34 -118 61 -188 60 -26 -1 -91 -14 -143 -31z m970 -2173 c80 -124 144
-231 144 -240 -1 -8 2 -12 7 -10 11 8 92 -114 86 -130 -3 -7 -29 -18 -59 -24
-29 -7 -64 -14 -78 -17 l-25 -6 27 15 c14 8 49 18 77 22 28 4 51 11 51 16 0 5
-5 9 -10 9 -6 0 -9 3 -8 8 2 4 -7 20 -19 36 -24 29 -30 28 -14 -3 8 -14 5 -17
-15 -17 -14 0 -23 5 -20 11 4 12 -109 -5 -133 -19 -7 -5 -78 -7 -158 -7 -126
2 -148 -1 -165 -16 -16 -14 -21 -15 -28 -3 -7 12 -22 12 -92 2 -106 -15 -158
-15 -158 0 0 6 -3 9 -6 6 -3 -4 0 -17 6 -30 10 -19 10 -21 -1 -10 -7 6 -23 12
-35 12 -12 0 -25 8 -28 17 -6 14 -9 15 -15 4 -11 -18 -43 -1 -98 52 -37 36
-49 41 -90 41 -40 1 -49 -3 -59 -24 -16 -30 -8 -41 56 -81 l45 -29 -35 0 c-96
0 -181 41 -385 185 -54 38 -95 45 -116 19 -12 -15 -9 -20 21 -43 19 -14 48
-39 65 -56 17 -16 19 -20 5 -8 -40 34 -120 73 -151 73 -18 0 -32 -7 -39 -19
-8 -16 -4 -23 23 -40 28 -18 29 -21 10 -21 -48 0 -32 -52 22 -70 19 -6 35 -17
35 -23 0 -7 13 -18 29 -25 34 -15 108 -72 94 -72 -5 0 -14 5 -21 12 -8 8 -15
8 -26 -1 -13 -11 -15 -9 -11 9 5 24 -33 44 -61 33 -18 -7 -37 -8 -213 -11
-100 -2 -112 -4 -101 -17 15 -18 -1 -21 -31 -4 -17 9 -18 13 -7 27 11 15 11
15 -3 5 -13 -10 -23 -7 -57 18 -63 46 -50 29 21 -28 49 -39 70 -50 94 -48 18
1 30 -2 27 -7 -3 -5 -15 -6 -27 -2 -16 4 -19 3 -12 -5 6 -6 29 -13 50 -15 90
-9 215 -29 211 -33 -2 -3 -67 3 -143 13 l-138 17 -88 81 c-48 44 -86 85 -83
91 2 7 -2 12 -9 12 -15 0 -454 394 -451 406 2 11 389 9 592 -3 158 -9 286 -30
439 -71 140 -37 175 -36 332 11 206 62 596 185 693 219 47 16 92 30 100 30 9
0 76 -94 160 -224z m-376 -577 c19 -74 -11 -172 -67 -212 -30 -22 -102 -28
-146 -12 l-24 8 5 -166 5 -166 -31 -5 c-57 -10 -449 -4 -560 9 l-69 8 8 106
c4 59 10 168 14 242 5 120 8 135 24 134 9 0 33 -1 52 -2 l34 -2 -5 -147 -6
-148 31 -45 c41 -60 102 -125 125 -133 25 -10 71 20 133 86 73 77 76 86 68
185 l-7 85 23 -7 c51 -14 208 -19 237 -7 41 17 93 93 99 144 7 60 10 67 32 67
11 0 21 -9 25 -22z"/>
</g>
</svg>
