<?xml version="1.0" standalone="no"?>
<!DOCTYPE svg PUBLIC "-//W3C//DTD SVG 20010904//EN"
 "http://www.w3.org/TR/2001/REC-SVG-20010904/DTD/svg10.dtd">
<svg version="1.0" xmlns="http://www.w3.org/2000/svg"
 width="474.000000pt" height="474.000000pt" viewBox="0 0 474.000000 474.000000"
 preserveAspectRatio="xMidYMid meet">
<metadata>
Created by potrace 1.16, written by Peter Selinger 2001-2019
</metadata>
<g transform="translate(0.000000,474.000000) scale(0.100000,-0.100000)"
fill="#000000" stroke="none">
<path d="M1134 4674 c-60 -30 -64 -47 -64 -307 l0 -234 -137 -6 c-149 -6 -229
-25 -333 -77 -180 -91 -321 -263 -377 -460 -17 -62 -18 -137 -18 -1510 l0
-1445 27 -80 c76 -224 238 -387 468 -472 l75 -28 1565 -3 c1749 -3 1638 -7
1795 68 186 89 322 252 387 462 l23 73 3 1380 c2 983 0 1403 -8 1459 -34 240
-169 434 -380 549 -100 55 -194 78 -347 84 l-133 6 0 226 c0 255 -6 281 -70
314 -32 16 -72 17 -505 15 -430 -3 -472 -5 -496 -21 -45 -31 -49 -52 -49 -302
l0 -235 -185 0 -184 0 -3 244 c-3 271 -4 272 -75 302 -50 22 -935 20 -979 -2z
m816 -384 l0 -160 -325 0 -325 0 0 160 0 160 325 0 325 0 0 -160z m1490 0 l0
-160 -325 0 -325 0 0 160 0 160 325 0 325 0 0 -160z m521 -419 c30 -10 75 -29
99 -41 58 -30 158 -131 192 -196 61 -113 58 -40 58 -1541 0 -966 -3 -1388 -11
-1425 -27 -128 -130 -264 -247 -326 -121 -64 -48 -62 -1682 -62 -1621 0 -1545
-2 -1668 58 -75 36 -171 132 -210 208 -65 129 -63 76 -60 1579 l3 1360 22 65
c54 159 197 293 350 329 21 5 708 9 1569 10 1473 1 1533 0 1585 -18z"/>
<path d="M950 3521 c-53 -52 -52 -131 1 -175 l31 -26 1393 0 1393 0 32 30 c31
29 32 33 28 91 -3 44 -10 65 -26 82 l-23 22 -1400 3 -1400 2 -29 -29z"/>
<path d="M880 2635 l0 -305 303 2 302 3 3 303 2 302 -305 0 -305 0 0 -305z"/>
<path d="M2072 2638 l3 -303 300 0 300 0 3 303 2 302 -305 0 -305 0 2 -302z"/>
<path d="M3262 2638 l3 -303 300 0 300 0 3 303 2 302 -305 0 -305 0 2 -302z"/>
<path d="M880 1705 l0 -305 305 0 305 0 0 305 0 305 -305 0 -305 0 0 -305z"/>
<path d="M2070 1705 l0 -305 303 2 302 3 0 300 0 300 -302 3 -303 2 0 -305z"/>
<path d="M3260 1705 l0 -305 303 2 302 3 3 303 2 302 -305 0 -305 0 0 -305z"/>
</g>
</svg>
