<?xml version="1.0" standalone="no"?>
<!DOCTYPE svg PUBLIC "-//W3C//DTD SVG 20010904//EN"
 "http://www.w3.org/TR/2001/REC-SVG-20010904/DTD/svg10.dtd">
<svg version="1.0" xmlns="http://www.w3.org/2000/svg"
 width="256.000000pt" height="256.000000pt" viewBox="0 0 256.000000 256.000000"
 preserveAspectRatio="xMidYMid meet">
<metadata>
Created by potrace 1.16, written by Peter Selinger 2001-2019
</metadata>
<g transform="translate(0.000000,256.000000) scale(0.100000,-0.100000)"
fill="#000000" stroke="none">
<path d="M1097 2434 c-590 -91 -1028 -629 -994 -1218 17 -300 132 -553 346
-767 474 -474 1235 -463 1700 26 192 203 301 457 318 741 27 458 -235 901
-654 1108 -221 110 -471 148 -716 110z m454 -107 c226 -59 410 -171 560 -343
363 -415 354 -1038 -20 -1442 l-49 -53 -48 36 c-57 44 -136 84 -224 115 -71
26 -113 53 -177 117 l-43 42 0 84 c0 71 3 89 21 111 12 15 34 60 50 99 15 40
41 86 57 102 70 71 85 156 80 445 -3 200 -5 219 -27 267 -28 62 -83 116 -137
133 -22 7 -50 21 -64 30 -64 44 -113 61 -194 67 -149 10 -299 -38 -379 -121
-97 -102 -133 -228 -122 -431 8 -157 8 -158 0 -215 -9 -60 8 -120 45 -160 17
-18 48 -69 70 -114 22 -44 49 -97 60 -116 24 -41 27 -127 6 -168 -15 -29 -94
-107 -136 -135 -14 -9 -59 -28 -100 -43 -85 -30 -181 -83 -222 -122 l-28 -26
-50 55 c-337 361 -382 913 -109 1328 163 248 424 419 725 476 120 22 332 14
455 -18z"/>
</g>
</svg>
